<svg width="38" height="36" viewBox="0 0 38 36" fill="none" xmlns="http://www.w3.org/2000/svg">
<path d="M18.3145 0.842102C18.4662 0.38589 19.1119 0.385886 19.2637 0.842102L23.0264 12.1595C23.2302 12.7726 23.8041 13.1868 24.4502 13.1868H36.5762C37.0632 13.1868 37.2632 13.812 36.8662 14.0941L27.0947 21.0316C26.557 21.4134 26.3321 22.102 26.54 22.7278L30.2812 33.9818C30.4337 34.4404 29.9117 34.827 29.5176 34.5472L19.6572 27.5462C19.1372 27.177 18.4409 27.177 17.9209 27.5462L8.06055 34.5472C7.66647 34.827 7.14442 34.4404 7.29688 33.9818L11.0381 22.7278C11.246 22.102 11.0211 21.4134 10.4834 21.0316L0.711914 14.0941C0.31492 13.812 0.514874 13.1868 1.00195 13.1868H13.1279C13.774 13.1868 14.3479 12.7726 14.5518 12.1595L18.3145 0.842102Z" stroke="#333333"/>
</svg>
