<svg width="12" height="11" viewBox="0 0 12 11" fill="none" xmlns="http://www.w3.org/2000/svg">
<path d="M5.10741 0.448257C5.30159 -0.149372 6.14708 -0.149371 6.34126 0.448258L7.24791 3.23865C7.33475 3.50591 7.58381 3.68687 7.86483 3.68687H10.7988C11.4272 3.68687 11.6885 4.49097 11.1801 4.86033L8.80646 6.58488C8.57911 6.75006 8.48397 7.04285 8.57081 7.31012L9.47746 10.1005C9.67165 10.6981 8.98763 11.1951 8.47926 10.8257L6.10561 9.10119C5.87826 8.93601 5.5704 8.93601 5.34305 9.10119L2.96941 10.8257C2.46103 11.1951 1.77702 10.6981 1.9712 10.1005L2.87785 7.31012C2.96469 7.04285 2.86956 6.75006 2.64221 6.58488L0.268563 4.86033C-0.239811 4.49097 0.0214585 3.68687 0.649843 3.68687H3.58383C3.86485 3.68687 4.11392 3.50591 4.20076 3.23865L5.10741 0.448257Z" fill="#E62B34"/>
</svg>
