<svg width="21" height="20" viewBox="0 0 21 20" fill="none" xmlns="http://www.w3.org/2000/svg">
<path d="M9.75757 0.548584C9.85466 0.249769 10.2777 0.24977 10.3748 0.548584L12.3064 6.49292C12.4366 6.89369 12.8098 7.16559 13.2312 7.16577H19.4822C19.7964 7.16577 19.9268 7.56801 19.6726 7.75269L14.616 11.4265C14.275 11.6743 14.1322 12.1135 14.2625 12.5144L16.1941 18.4597C16.2908 18.7584 15.9491 19.0066 15.6951 18.822L10.6384 15.1482C10.2974 14.9004 9.83492 14.9004 9.4939 15.1482L4.43726 18.822C4.18317 19.0066 3.84153 18.7584 3.93823 18.4597L5.86987 12.5144C6.0001 12.1135 5.85734 11.6743 5.51636 11.4265L0.459717 7.75269C0.205529 7.56801 0.335956 7.16577 0.650146 7.16577H6.90112C7.32248 7.16559 7.69571 6.89369 7.82593 6.49292L9.75757 0.548584Z" stroke="#E62B34" stroke-width="0.648672"/>
</svg>
